<?xml version="1.0" standalone="no"?>
<!DOCTYPE svg PUBLIC "-//W3C//DTD SVG 20010904//EN"
 "http://www.w3.org/TR/2001/REC-SVG-20010904/DTD/svg10.dtd">
<svg version="1.0" xmlns="http://www.w3.org/2000/svg"
 width="512.000000pt" height="512.000000pt" viewBox="0 0 512.000000 512.000000"
 preserveAspectRatio="xMidYMid meet">
<metadata>
Created by potrace 1.14, written by Peter Selinger 2001-2017
</metadata>
<g transform="translate(0.000000,512.000000) scale(0.100000,-0.100000)"
fill="#000000" stroke="none">
<path d="M1386 5053 c-29 -78 -179 -483 -302 -818 -47 -126 -91 -246 -98 -265
-16 -40 -31 -81 -120 -320 -35 -96 -94 -256 -131 -355 -37 -99 -78 -211 -92
-250 -13 -38 -28 -79 -33 -90 -5 -11 -47 -123 -94 -250 -47 -126 -121 -328
-165 -448 -45 -120 -81 -220 -81 -222 0 -3 312 -6 693 -7 l693 -3 -183 -494
c-101 -272 -183 -499 -183 -505 0 -8 205 -11 690 -11 380 0 690 -1 690 -3 0
-5 -56 -164 -68 -192 -6 -14 -75 -198 -153 -410 -78 -212 -144 -391 -147 -398
-3 -10 139 -12 704 -10 l707 3 9 30 c5 17 16 46 23 65 8 19 51 134 95 255 45
121 97 261 115 310 19 50 49 133 69 185 62 170 396 1073 418 1130 11 30 24 64
29 75 4 11 26 72 49 135 23 63 54 149 70 190 16 41 54 145 86 230 31 85 81
220 111 300 30 80 56 152 57 160 3 13 -81 16 -689 20 l-692 5 42 110 c23 61
44 117 48 125 3 8 19 53 35 100 17 47 35 96 40 110 6 14 30 77 53 140 23 63
53 144 67 180 13 36 39 106 57 155 l33 90 -694 0 c-689 0 -694 0 -688 20 6 21
215 590 310 844 30 79 54 145 54 147 0 2 -317 4 -704 4 l-704 0 -26 -67z"/>
</g>
</svg>
